<svg width="518" height="512" viewBox="0 0 518 512" fill="none" xmlns="http://www.w3.org/2000/svg">
<rect x="6" width="512" height="512" rx="40" fill="#121214"/>
<path d="M27.0516 288.5L31.8516 269.3H44.1516C48.1516 269.3 51.7516 268.6 54.9516 267.2C58.3516 265.6 61.3516 263.6 63.9516 261.2C66.5516 258.6 68.6516 255.8 70.2516 252.8C72.0516 249.6 73.3516 246.4 74.1516 243.2L85.5516 194.9C87.5516 186.7 89.9516 179.7 92.7516 173.9C95.7516 168.1 99.6516 163.4 104.452 159.8C109.252 156.2 115.052 153.6 121.852 152C128.652 150.2 136.952 149.3 146.752 149.3H171.952L166.852 168.8H142.852C138.052 168.8 133.752 169.1 129.952 169.7C126.152 170.3 122.852 171.6 120.052 173.6C117.452 175.4 115.152 178.1 113.152 181.7C111.152 185.1 109.552 189.6 108.352 195.2L98.4516 236.6C95.6516 248.4 92.0516 257.6 87.6516 264.2C83.4516 270.8 77.6516 275.7 70.2516 278.9C74.0516 282.1 76.7516 285.8 78.3516 290C80.1516 294 81.0516 298.3 81.0516 302.9C81.0516 306.1 80.7516 309.2 80.1516 312.2C79.5516 315.2 78.9516 318.2 78.3516 321.2L68.4516 362.6C67.2516 367.8 66.6516 371.8 66.6516 374.6C66.6516 380.4 68.4516 384.2 72.0516 386C75.8516 388 81.7516 389 89.7516 389H114.952L109.852 408.5H83.7516C70.7516 408.5 60.7516 406.2 53.7516 401.6C46.9516 397.2 43.5516 389.6 43.5516 378.8C43.5516 373.8 44.2516 368.5 45.6516 362.9L57.0516 314.6C57.8516 312 58.2516 309.4 58.2516 306.8C58.2516 301.8 56.7516 297.5 53.7516 293.9C50.9516 290.3 46.0516 288.5 39.0516 288.5H27.0516ZM498.248 269.3L493.448 288.5H481.448C477.448 288.5 473.748 289.3 470.348 290.9C466.948 292.3 463.948 294.3 461.348 296.9C458.948 299.3 456.848 302.1 455.048 305.3C453.448 308.3 452.248 311.4 451.448 314.6L440.048 362.9C438.048 371.1 435.548 378.1 432.548 383.9C429.548 389.7 425.648 394.4 420.848 398C416.248 401.6 410.448 404.2 403.448 405.8C396.648 407.6 388.448 408.5 378.848 408.5H353.648L358.448 389H382.448C387.448 389 391.748 388.7 395.348 388.1C399.148 387.5 402.448 386.2 405.248 384.2C408.048 382.4 410.448 379.7 412.448 376.1C414.448 372.7 416.048 368.2 417.248 362.6L427.148 321.2C429.948 309.4 433.448 300.2 437.648 293.6C441.848 287 447.648 282.1 455.048 278.9C451.248 275.7 448.548 272.1 446.948 268.1C445.348 263.9 444.548 259.5 444.548 254.9C444.548 251.7 444.748 248.6 445.148 245.6C445.748 242.6 446.448 239.6 447.248 236.6L457.148 195.2C457.548 192.6 457.948 190.4 458.348 188.6C458.748 186.6 458.948 184.8 458.948 183.2C458.948 177.4 457.048 173.6 453.248 171.8C449.648 169.8 443.748 168.8 435.548 168.8H410.348L415.448 149.3H441.848C454.848 149.3 464.748 151.6 471.548 156.2C478.548 160.6 482.048 168.2 482.048 179C482.048 181.2 481.848 183.7 481.448 186.5C481.048 189.1 480.548 191.9 479.948 194.9L468.248 243.2C467.648 246.2 467.348 248.8 467.348 251C467.348 256 468.748 260.3 471.548 263.9C474.348 267.5 479.248 269.3 486.248 269.3H498.248Z" fill="#50FA7B"/>
<path d="M220.055 145.719L286.852 145.865C299.84 146.158 311.314 148.648 321.275 153.336C331.236 158.023 338.805 164.957 343.98 174.137C349.254 183.219 351.305 194.693 350.133 208.561C349.156 219.596 346.031 229.117 340.758 237.125C335.582 245.035 328.893 251.676 320.689 257.047C312.486 262.32 303.404 266.52 293.443 269.645L285.24 272.574H219.029L222.838 249.576L269.859 249.723C278.453 249.723 286.51 248.16 294.029 245.035C301.646 241.91 307.994 237.32 313.072 231.266C318.248 225.113 321.422 217.545 322.594 208.561C323.668 199.967 322.838 192.789 320.104 187.027C317.369 181.266 313.072 176.871 307.213 173.844C301.451 170.816 294.469 169.205 286.266 169.01L243.639 168.863L210.68 359H182.994L220.055 145.719ZM304.723 359L271.178 262.32L298.424 262.174L334.166 357.096L334.02 359H304.723Z" fill="#CCD6F6"/>
</svg>
